HIERARCHY
ROOT Hips
{
	OFFSET 0.000000 0.000000 0.000000
	CHANNELS 6 Xposition Yposition Zposition Zrotation Yrotation Xrotation 
	JOINT LHipJoint
	{
		OFFSET 0.000000 0.000000 0.000000
		CHANNELS 3 Zrotation Yrotation Xrotation
		JOINT LeftUpLeg
		{
			OFFSET 1.363060 -1.794630 0.839290
			CHANNELS 3 Zrotation Yrotation Xrotation
			JOINT LeftLeg
			{
				OFFSET 2.448110 -6.726130 0.000000
				CHANNELS 3 Zrotation Yrotation Xrotation
				JOINT LeftFoot
				{
					OFFSET 2.562200 -7.039590 0.000000
					CHANNELS 3 Zrotation Yrotation Xrotation
					JOINT LeftToeBase
					{
						OFFSET 0.157640 -0.433110 2.322550
						CHANNELS 3 Zrotation Yrotation Xrotation
						End Site
						{
							OFFSET 0.000000 0.000000 0.000000
						}
					}
				}
			}
		}
	}
	JOINT RHipJoint
	{
		OFFSET 0.000000 0.000000 0.000000
		CHANNELS 3 Zrotation Yrotation Xrotation
		JOINT RightUpLeg
		{
			OFFSET -1.305520 -1.794630 0.839290
			CHANNELS 3 Zrotation Yrotation Xrotation
			JOINT RightLeg
			{
				OFFSET -2.542530 -6.985550 0.000000
				CHANNELS 3 Zrotation Yrotation Xrotation
				JOINT RightFoot
				{
					OFFSET -2.568260 -7.056230 0.000000
					CHANNELS 3 Zrotation Yrotation Xrotation
					JOINT RightToeBase
					{
						OFFSET -0.164730 -0.452590 2.363150
						CHANNELS 3 Zrotation Yrotation Xrotation
						End Site
						{
							OFFSET 0.000000 0.000000 0.000000
						}
					}
				}
			}
		}
	}
	JOINT LowerBack
	{
		OFFSET 0.000000 0.000000 0.000000
		CHANNELS 3 Zrotation Yrotation Xrotation
		JOINT Spine
		{
			OFFSET 0.028270 2.035590 -0.193380
			CHANNELS 3 Zrotation Yrotation Xrotation
			JOINT Spine1
			{
				OFFSET 0.056720 2.048850 -0.042750
				CHANNELS 3 Zrotation Yrotation Xrotation
				JOINT Neck
				{
					OFFSET 0.000000 0.000000 0.000000
					CHANNELS 3 Zrotation Yrotation Xrotation
					JOINT Neck1
					{
						OFFSET -0.054170 1.746240 0.172020
						CHANNELS 3 Zrotation Yrotation Xrotation
						JOINT Head
						{
							OFFSET 0.104070 1.761360 -0.123970
							CHANNELS 3 Zrotation Yrotation Xrotation
							End Site
							{
								OFFSET 0.000000 0.000000 0.000000
							}
						}
					}
				}
				JOINT LeftShoulder
				{
					OFFSET 0.000000 0.000000 0.000000
					CHANNELS 3 Zrotation Yrotation Xrotation
					JOINT LeftArm
					{
						OFFSET 3.362410 1.200890 -0.311210
						CHANNELS 3 Zrotation Yrotation Xrotation
						JOINT LeftForeArm
						{
							OFFSET 4.983000 -0.000000 -0.000000
							CHANNELS 3 Zrotation Yrotation Xrotation
							JOINT LeftHand
							{
								OFFSET 3.483560 -0.000000 -0.000000
								CHANNELS 3 Zrotation Yrotation Xrotation
								JOINT LeftFingerBase
								{
									OFFSET 0.000000 0.000000 0.000000
									CHANNELS 3 Zrotation Yrotation Xrotation
									JOINT LeftHandIndex1
									{
										OFFSET 0.715260 -0.000000 -0.000000
										CHANNELS 3 Zrotation Yrotation Xrotation
										End Site
										{
											OFFSET 0.000000 0.000000 0.000000
										}
									}
								}
								JOINT LThumb
								{
									OFFSET 0.000000 0.000000 0.000000
									CHANNELS 3 Zrotation Yrotation Xrotation
									End Site
									{
										OFFSET 0.000000 0.000000 0.000000
									}
								}
							}
						}
					}
				}
				JOINT RightShoulder
				{
					OFFSET 0.000000 0.000000 0.000000
					CHANNELS 3 Zrotation Yrotation Xrotation
					JOINT RightArm
					{
						OFFSET -3.136600 1.374050 -0.404650
						CHANNELS 3 Zrotation Yrotation Xrotation
						JOINT RightForeArm
						{
							OFFSET -5.241900 -0.000000 -0.000000
							CHANNELS 3 Zrotation Yrotation Xrotation
							JOINT RightHand
							{
								OFFSET -3.444170 -0.000000 -0.000000
								CHANNELS 3 Zrotation Yrotation Xrotation
								JOINT RightFingerBase
								{
									OFFSET 0.000000 0.000000 0.000000
									CHANNELS 3 Zrotation Yrotation Xrotation
									JOINT RightHandIndex1
									{
										OFFSET -0.622530 -0.000000 -0.000000
										CHANNELS 3 Zrotation Yrotation Xrotation
										End Site
										{
											OFFSET 0.000000 0.000000 0.000000
										}
									}
								}
								JOINT RThumb
								{
									OFFSET 0.000000 0.000000 0.000000
									CHANNELS 3 Zrotation Yrotation Xrotation
									End Site
									{
										OFFSET 0.000000 0.000000 0.000000
									}
								}
							}
						}
					}
				}
			}
		}
	}
}
MOTION
Frames: 6
Frame Time: 0.008333
-10.399667 17.554975 -16.118334 -130.746337 87.103874 -133.510887 2.857218 -1.435514 -0.466698 -11.653751 -15.961932 2.553261 -1.427983 7.499298 20.710853 0.061637 4.523396 -14.570023 0.364900 -3.880400 -10.740400 -10.396167 -1.197570 -5.148144 20.976017 -14.345369 11.030566 1.764911 -0.879859 3.821127 0.354863 -8.376022 -10.515789 -0.128400 -2.309700 6.362500 2.688374 -0.848163 9.538741 1.182632 -0.855389 -1.176654 1.653546 -0.793578 -2.338712 -5.694932 -4.170244 -23.743774 4.474352 -4.228617 18.440428 1.908100 -1.917100 15.012700 6.196900 -8.369275 0.350897 -94.059672 -0.239458 21.344739 10.632878 -22.216339 -3.357395 -0.554460 1.925233 -12.848858 30.916227 10.012995 4.594500 -7.125000 0.000000 0.000000 3.681500 38.884200 -0.555600 -7.536295 7.798026 2.036221 84.609078 -4.562191 22.858460 -14.975564 26.850787 -3.636803 -0.073204 -1.825777 25.340016 -15.937064 -12.694048 3.242500 7.125000 0.000000 0.000000 9.248500 -41.173900 0.881200 
-10.396143 17.550962 -16.117845 -129.932392 87.059702 -132.826014 2.892982 -1.415843 -0.469134 -11.598864 -15.610073 2.509912 -1.393245 7.517304 20.796675 0.084221 4.279851 -14.318645 0.394200 -4.031600 -11.165600 -10.374344 -1.186623 -5.158916 20.976545 -14.390456 11.163638 1.766860 -0.879281 3.826731 0.357566 -8.399369 -10.495464 -0.119400 -2.227400 6.134500 2.801753 -0.824882 9.651413 1.174109 -0.808156 -1.134669 1.573157 -0.771385 -2.328694 -5.580095 -4.130791 -23.690802 4.427645 -4.213734 18.462878 1.866500 -1.902900 15.007600 6.198816 -8.370408 0.353743 -94.023920 -0.272670 21.366793 10.676949 -22.261069 -3.367762 -0.558307 1.924456 -12.892709 30.881674 10.009893 4.587000 -7.125000 0.000000 0.000000 3.653500 38.878400 -0.551900 -7.544452 7.795265 2.030098 84.712652 -4.509443 22.524190 -14.836778 26.706190 -3.593353 -0.086315 -1.816614 25.721087 -15.885923 -12.556782 3.193500 7.125000 0.000000 0.000000 9.272200 -41.037500 0.915000 
-10.392032 17.547047 -16.116377 -130.234319 87.061598 -133.247901 2.888725 -1.407535 -0.466347 -11.583812 -15.304475 2.505820 -1.371029 7.520421 20.828595 0.100913 4.079166 -14.087956 0.419400 -4.156600 -11.517600 -10.388488 -1.185377 -5.172710 20.938461 -14.438517 11.293884 1.766973 -0.875671 3.833152 0.360682 -8.419649 -10.469436 -0.115500 -2.191400 6.034900 2.850167 -0.795971 9.756158 1.154032 -0.757178 -1.094852 1.481922 -0.747050 -2.320752 -5.452365 -4.093701 -23.607656 4.375089 -4.207673 18.475734 1.818000 -1.891500 14.989900 6.198731 -8.371948 0.358063 -93.964248 -0.285271 21.396283 10.727836 -22.312034 -3.379047 -0.564731 1.922414 -12.978374 30.829435 10.015340 4.582300 -7.125000 0.000000 0.000000 3.611100 38.882500 -0.545100 -7.553989 7.792018 2.022259 84.836406 -4.449645 22.151436 -14.703650 26.564990 -3.545950 -0.095425 -1.803420 26.145981 -15.710984 -12.354875 3.104000 7.125000 0.000000 0.000000 9.390400 -40.831700 0.975000 
-10.387236 17.543131 -16.113636 -131.582010 87.116125 -134.704424 2.845449 -1.412040 -0.458901 -11.609147 -15.048201 2.511270 -1.354249 7.528805 20.858721 0.117863 3.904105 -13.914939 0.434800 -4.231400 -11.728700 -10.436284 -1.191798 -5.189312 20.859413 -14.483839 11.422329 1.765104 -0.868635 3.840453 0.363085 -8.429031 -10.442518 -0.115900 -2.195300 6.045600 2.822288 -0.766539 9.852881 1.128084 -0.711017 -1.060943 1.402319 -0.724488 -2.318735 -5.333823 -4.051168 -23.507069 4.322008 -4.189211 18.496845 1.773100 -1.876000 14.972900 6.197671 -8.373368 0.362204 -93.901335 -0.277828 21.406778 10.774134 -22.358139 -3.389332 -0.572029 1.919786 -13.106840 30.782418 10.022277 4.579400 -7.125000 0.000000 0.000000 3.572800 38.888800 -0.538700 -7.561423 7.788326 2.014584 84.938524 -4.401456 21.849436 -14.598534 26.451310 -3.504291 -0.098828 -1.790093 26.504131 -15.477309 -12.160307 3.007500 7.125000 0.000000 0.000000 9.558600 -40.631400 1.040500 
-10.382146 17.539020 -16.110406 -133.528202 87.212851 -136.751496 2.778590 -1.420511 -0.446005 -11.666617 -14.840865 2.535565 -1.344543 7.537149 20.875272 0.133665 3.767677 -13.811313 0.438400 -4.248600 -11.777200 -10.503262 -1.198949 -5.209577 20.751489 -14.519463 11.553030 1.762043 -0.858752 3.848335 0.365232 -8.431295 -10.413755 -0.116600 -2.201600 6.063100 2.739241 -0.741346 9.946658 1.101742 -0.675347 -1.034671 1.345427 -0.706262 -2.326297 -5.241396 -3.996648 -23.410151 4.277205 -4.141780 18.548983 1.742700 -1.850000 14.974900 6.196735 -8.373587 0.364384 -93.855462 -0.256724 21.365401 10.800876 -22.383960 -3.396079 -0.577998 1.917357 -13.256777 30.759164 10.023157 4.576600 -7.125000 0.000000 0.000000 3.553600 38.889300 -0.535800 -7.564519 7.785205 2.008925 84.989445 -4.380017 21.705692 -14.534341 26.381334 -3.476990 -0.096202 -1.782051 26.692354 -15.273873 -12.069492 2.946700 7.125000 0.000000 0.000000 9.716800 -40.535000 1.081400 
-10.376371 17.534909 -16.106882 -135.446235 87.325948 -138.752820 2.711018 -1.426575 -0.430570 -11.733973 -14.680334 2.564302 -1.338549 7.549017 20.894565 0.149188 3.665341 -13.781923 0.433200 -4.223700 -11.706900 -10.568753 -1.201790 -5.231089 20.643071 -14.538715 11.676039 1.759156 -0.848194 3.855534 0.368014 -8.437182 -10.379598 -0.113100 -2.168100 5.970400 2.638846 -0.723579 10.025574 1.079497 -0.652920 -1.016630 1.313485 -0.693672 -2.336771 -5.178554 -3.929105 -23.339758 4.247279 -4.061568 18.651067 1.732200 -1.811000 15.013000 6.196923 -8.371816 0.363303 -93.837465 -0.233639 21.246103 10.793823 -22.373529 -3.395680 -0.580693 1.915661 -13.387984 30.765379 10.013408 4.572200 -7.125000 0.000000 0.000000 3.557600 38.879400 -0.537200 -7.563382 7.783079 2.005907 84.985689 -4.389045 21.745154 -14.511014 26.358126 -3.468479 -0.089100 -1.783315 26.666840 -15.176319 -12.149951 2.952200 7.125000 0.000000 0.000000 9.812300 -40.611600 1.073500 
